<?xml version="1.0" encoding="UTF-8" standalone="no"?>
<!-- Created with Inkscape (http://www.inkscape.org/) -->

<svg
   width="150.87859mm"
   height="38.783493mm"
   viewBox="0 0 150.87859 38.783494"
   version="1.1"
   id="svg5"
   inkscape:version="1.1.2 (0a00cf5339, 2022-02-04)"
   sodipodi:docname="logo-one-line.svg"
   xmlns:inkscape="http://www.inkscape.org/namespaces/inkscape"
   xmlns:sodipodi="http://sodipodi.sourceforge.net/DTD/sodipodi-0.dtd"
   xmlns="http://www.w3.org/2000/svg"
   xmlns:svg="http://www.w3.org/2000/svg">
  <sodipodi:namedview
     id="namedview7"
     pagecolor="#ffffff"
     bordercolor="#666666"
     borderopacity="1.0"
     inkscape:pageshadow="2"
     inkscape:pageopacity="0.0"
     inkscape:pagecheckerboard="0"
     inkscape:document-units="mm"
     showgrid="false"
     inkscape:zoom="2.1997092"
     inkscape:cx="257.53404"
     inkscape:cy="177.29616"
     inkscape:window-width="2544"
     inkscape:window-height="1339"
     inkscape:window-x="1928"
     inkscape:window-y="8"
     inkscape:window-maximized="0"
     inkscape:current-layer="layer1" />
  <defs
     id="defs2">
    <rect
       x="97.110069"
       y="199.34866"
       width="696.37408"
       height="258.74338"
       id="rect3026" />
  </defs>
  <g
     inkscape:label="Layer 1"
     inkscape:groupmode="layer"
     id="layer1"
     transform="translate(-26.575467,-56.625137)"
     style="display:inline">
    <g
       aria-label="parallel worlds"
       transform="scale(0.26458333)"
       id="text3024"
       style="font-size:85.3333px;line-height:1.25;font-family:'Blippo Blk BT';-inkscape-font-specification:'Blippo Blk BT';letter-spacing:0px;word-spacing:0px;white-space:pre;shape-inside:url(#rect3026);display:inline">
      <path
         d="m 100.44271,295.76624 v -37.91666 q 0,-4.04166 0.25,-6.45833 0.29166,-2.45833 0.95833,-4.54166 2.20833,-7.79166 7.95833,-12.20833 5.75,-4.41666 13.70833,-4.41666 4.58333,0 8.70833,1.70833 4.16666,1.70833 7.41666,4.95833 3.125,3.125 4.79167,7.20833 1.66666,4.08333 1.66666,8.58333 0,9.45833 -6.54166,16.04166 -6.5,6.54166 -15.95833,6.54166 -1,0 -3.20833,-0.125 -0.20833,-0.0417 -0.29167,-0.0417 v -16.875 q 1,0.375 1.75,0.58334 0.79167,0.16666 1.5,0.16666 2.70833,0 4.5,-1.79166 1.79166,-1.79167 1.79166,-4.5 0,-2.625 -1.87499,-4.45833 -1.83334,-1.875 -4.41667,-1.875 -3.5,0 -5,2.45833 -1.5,2.45833 -1.5,8.625 v 38.33332 z"
         id="path40264"
         style="display:inline;fill:#ffffff;fill-opacity:1;stroke-width:1.00157;stroke-miterlimit:4;stroke-dasharray:none" />
      <path
         d="m 194.901,274.84958 h -16.24999 v -17.41666 q 0,-6.16667 -1.5,-8.625 -1.5,-2.45833 -4.95833,-2.45833 -2.625,0 -4.5,1.875 -1.83333,1.83333 -1.83333,4.45833 0,2.70833 1.79166,4.5 1.83334,1.79166 4.54167,1.79166 0.66666,0 1.45833,-0.16666 0.79167,-0.20834 1.79167,-0.58334 v 16.875 l -0.29167,0.0417 q -2.25,0.125 -3.20833,0.125 -9.41666,0 -15.95833,-6.54166 -6.5,-6.54166 -6.5,-16.04166 0,-4.5 1.66667,-8.58333 1.66667,-4.08333 4.83333,-7.20833 3.20833,-3.25 7.33333,-4.95833 4.125,-1.70833 8.70833,-1.70833 6.75,0 12.125,3.375 5.37499,3.33333 8.08333,9.24999 1.375,3.125 2,6.45833 0.66666,3.29167 0.66666,8.20833 v 3.16667 z"
         id="path40266"
         style="fill:#ffffff;fill-opacity:1;stroke-width:1.00157;stroke-miterlimit:4;stroke-dasharray:none" />
      <path
         d="m 218.23433,256.51625 v 18.33333 h -16.625 v -21.16666 q 0,-7.16666 1.33334,-11.16666 1.33333,-4.04167 4.54166,-7.16667 2.41667,-2.41666 5.625,-3.74999 3.25,-1.375 6.5,-1.375 1.58333,0 3.12499,0.125 1.54167,0.125 3,0.375 v 17.49999 q -0.29166,-0.0417 -0.875,-0.125 -1.375,-0.20833 -1.75,-0.20833 -2.70833,0 -3.79166,1.75 -1.08333,1.74999 -1.08333,6.87499 z"
         id="path40268"
         style="fill:#ffffff;fill-opacity:1;stroke-width:1.00157;stroke-miterlimit:4;stroke-dasharray:none" />
      <path
         d="m 275.1093,274.84958 h -16.24999 v -17.41666 q 0,-6.16667 -1.5,-8.625 -1.5,-2.45833 -4.95833,-2.45833 -2.625,0 -4.5,1.875 -1.83334,1.83333 -1.83334,4.45833 0,2.70833 1.79167,4.5 1.83333,1.79166 4.54167,1.79166 0.66666,0 1.45833,-0.16666 0.79166,-0.20834 1.79166,-0.58334 v 16.875 l -0.29166,0.0417 q -2.25,0.125 -3.20833,0.125 -9.41667,0 -15.95833,-6.54166 -6.5,-6.54166 -6.5,-16.04166 0,-4.5 1.66667,-8.58333 1.66666,-4.08333 4.83333,-7.20833 3.20833,-3.25 7.33333,-4.95833 4.125,-1.70833 8.70833,-1.70833 6.75,0 12.12499,3.375 5.375,3.33333 8.08333,9.24999 1.375,3.125 2,6.45833 0.66667,3.29167 0.66667,8.20833 v 3.16667 z"
         id="path40270"
         style="fill:#ffffff;fill-opacity:1;stroke-width:1.00157;stroke-miterlimit:4;stroke-dasharray:none" />
      <path
         d="m 363.81761,270.68291 q -3.41667,2.70834 -7.08333,4.04167 -3.66667,1.33333 -7.83334,1.33333 -3.33333,0 -6.58333,-1 -3.24999,-1 -6.12499,-2.95833 -4.83333,-3.16667 -7.5,-8.125 -2.66667,-5 -2.66667,-10.79166 0,-4.54166 1.75,-8.70833 1.75,-4.20833 5,-7.41666 3.29167,-3.33333 7.45833,-5.08333 4.16667,-1.75 8.66666,-1.75 10.04167,0 16.5,6.87499 6.45833,6.83333 6.45833,17.70833 v 0.91667 h -23.99999 q -1.125,0 -1.66667,-0.95834 -0.54166,-0.95833 -0.54166,-3.04166 0,-2.08333 0.54166,-3.08333 0.54167,-1 1.66667,-1 h 7.25 v -0.16667 q 0,-2.16667 -1.54167,-3.41667 -1.5,-1.29166 -4.08333,-1.29166 -3.25,0 -5.25,2.625 -2,2.625 -2,6.99999 0,4.58334 1.83333,7.16667 1.83334,2.58333 5.08333,2.58333 1.54167,0 3.08334,-0.83333 1.54166,-0.875 2.20833,-2.16667 z"
         id="path40276"
         style="fill:#ffffff;fill-opacity:1;stroke-width:1.00157;stroke-miterlimit:4;stroke-dasharray:none" />
      <path
         d="m 483.35923,231.43293 v 27.79165 q 0,3.66667 -0.58334,5.79167 -0.58333,2.125 -1.875,4.04166 -2.33333,3.33334 -5.91666,5.08333 -3.58333,1.75 -8.16666,1.75 -4.5,0 -8.16667,-1.75 -3.66666,-1.79166 -5.83333,-4.99999 -2.375,3.25 -6,4.99999 -3.58333,1.75 -7.99999,1.75 -3.91667,0 -7.33333,-1.375 -3.375,-1.41666 -5.625,-3.91666 -2.04167,-2.25 -2.91667,-4.83333 -0.83333,-2.625 -0.83333,-7.91667 v -26.41665 h 15.41666 v 21.49999 q 0,3.58333 0.875,4.91666 0.875,1.29167 2.95833,1.29167 2.04167,0 2.875,-1.33333 0.875,-1.33333 0.875,-4.875 v -21.49999 h 15.29166 v 21.49999 q 0,3.58333 0.875,4.91666 0.875,1.29167 2.95833,1.29167 2.04167,0 2.875,-1.33333 0.875,-1.33333 0.875,-4.875 v -21.49999 z"
         id="path40280"
         style="fill:#ffffff;fill-opacity:1;stroke-width:1.00157;stroke-miterlimit:4;stroke-dasharray:none" />
      <path
         d="m 504.69255,253.18292 q 0,2.41667 1.70833,4.16667 1.75,1.70833 4.20833,1.70833 2.41667,0 4.16667,-1.70833 1.79166,-1.75 1.79166,-4.16667 0,-2.45833 -1.79166,-4.20833 -1.75,-1.79167 -4.16667,-1.79167 -2.45833,0 -4.20833,1.75 -1.70833,1.75 -1.70833,4.25 z m -16.95833,0 q 0,-3.375 0.95833,-6.58333 1,-3.20833 2.875,-6.04166 3.25,-4.91667 8.25,-7.625 5,-2.70833 10.79166,-2.70833 4.5,0 8.70833,1.79166 4.20833,1.75 7.5,5.04167 3.25,3.25 5,7.41666 1.75,4.16667 1.75,8.70833 0,4.58333 -1.75,8.70833 -1.70834,4.125 -5,7.41666 -3.25,3.25 -7.45833,5 -4.20833,1.75 -8.75,1.75 -4.58333,0 -8.70833,-1.70833 -4.125,-1.75 -7.41666,-5.04167 -3.29167,-3.29166 -5.04167,-7.41666 -1.70833,-4.125 -1.70833,-8.70833 z"
         id="path40282"
         style="fill:#ffffff;fill-opacity:1;stroke-width:1.00157;stroke-miterlimit:4;stroke-dasharray:none" />
      <path
         d="m 555.06752,256.51625 v 18.33333 h -16.625 v -21.16666 q 0,-7.16666 1.33334,-11.16666 1.33333,-4.04167 4.54166,-7.16667 2.41667,-2.41666 5.625,-3.74999 3.25,-1.375 6.5,-1.375 1.58333,0 3.125,0.125 1.54166,0.125 2.99999,0.375 v 17.49999 q -0.29166,-0.0417 -0.875,-0.125 -1.375,-0.20833 -1.75,-0.20833 -2.70833,0 -3.79166,1.75 -1.08333,1.74999 -1.08333,6.87499 z"
         id="path40284"
         style="fill:#ffffff;fill-opacity:1;stroke-width:1.00157;stroke-miterlimit:4;stroke-dasharray:none" />
      <path
         d="m 634.90082,214.01627 v 34.70832 q 0,3.83333 -0.29167,6.08333 -0.25,2.25 -0.83333,4.25 -2.29167,7.95833 -8.08333,12.49999 -5.75,4.5 -13.66666,4.5 -4.54167,0 -8.66666,-1.75 -4.125,-1.75 -7.375,-5.08333 -3.16667,-3.20833 -4.83333,-7.33333 -1.66667,-4.16666 -1.66667,-8.70833 0,-9.70833 6.5,-16.37499 6.5,-6.66667 15.95832,-6.66667 0.95834,0 3.25,0.16667 0.125,0 0.25,0 v 17.24999 q -1.20833,-0.5 -1.95833,-0.66666 -0.70833,-0.20834 -1.20833,-0.20834 -2.79167,0 -4.625,1.875 -1.79167,1.83333 -1.79167,4.625 0,2.58333 1.875,4.5 1.875,1.875 4.45833,1.875 3.45834,0 4.95834,-2.5 1.5,-2.5 1.5,-8.83333 v -34.20832 z"
         id="path40288"
         style="fill:#ffffff;fill-opacity:1;stroke-width:1.00157;stroke-miterlimit:4;stroke-dasharray:none" />
      <path
         d="m 639.02582,274.68291 v -17.33332 q 4.75,0 6.49999,-1.54167 1.75,-1.58333 2.04167,-7.125 0.54167,-8.70833 4.66667,-12.95833 4.12499,-4.29166 11.99999,-4.29166 h 6.45833 v 17.37499 q -0.16667,0 -0.5,-0.0417 -0.29167,-0.0417 -0.41667,-0.0417 -1.45833,0 -2.54166,0.54167 -1.04167,0.5 -1.66667,1.49999 -0.95833,1.54167 -1.20833,5 -0.20833,3.41667 -0.66667,5.125 -1.70833,6.375 -7.29166,10.16666 -5.54166,3.79167 -13.33333,3.79167 -1.125,0 -3.75,-0.16667 -0.16666,0 -0.29166,0 z"
         id="path40290"
         style="fill:#ffffff;fill-opacity:1;stroke-width:1.00157;stroke-miterlimit:4;stroke-dasharray:none" />
      <path
         d="m 298.02596,274.84958 h -16.20833 v -60.83331 h 16.20833 z"
         id="path40272"
         style="display:inline;fill:#ffffff;fill-opacity:1;stroke-width:1.00157;stroke-miterlimit:4;stroke-dasharray:none" />
      <path
         d="m 320.98429,274.84958 h -16.20833 v -60.83331 h 16.20833 z"
         id="path40274"
         style="fill:#ffffff;fill-opacity:1;stroke-width:1.00157;stroke-miterlimit:4;stroke-dasharray:none" />
      <path
         d="m 392.48425,274.84958 h -16.20832 v -60.83331 h 16.20832 z"
         id="path40278"
         style="fill:#ffffff;fill-opacity:1;stroke-width:1.00157;stroke-miterlimit:4;stroke-dasharray:none" />
      <path
         d="m 584.27585,274.84958 h -16.20833 v -60.83331 h 16.20833 z"
         id="path40286"
         style="fill:#ffffff;fill-opacity:1;stroke-width:1.00157;stroke-miterlimit:4;stroke-dasharray:none" />
    </g>
  </g>
</svg>
