<?xml version="1.0" encoding="UTF-8" standalone="no"?>
<!-- Created with Inkscape (http://www.inkscape.org/) -->

<svg
   width="77.269325mm"
   height="21.629681mm"
   viewBox="0 0 77.269325 21.629681"
   version="1.1"
   id="svg1029"
   inkscape:version="1.1.2 (0a00cf5339, 2022-02-04)"
   sodipodi:docname="parallel.svg"
   xmlns:inkscape="http://www.inkscape.org/namespaces/inkscape"
   xmlns:sodipodi="http://sodipodi.sourceforge.net/DTD/sodipodi-0.dtd"
   xmlns="http://www.w3.org/2000/svg"
   xmlns:svg="http://www.w3.org/2000/svg">
  <sodipodi:namedview
     id="namedview1031"
     pagecolor="#ffffff"
     bordercolor="#666666"
     borderopacity="1.0"
     inkscape:pageshadow="2"
     inkscape:pageopacity="0.0"
     inkscape:pagecheckerboard="0"
     inkscape:document-units="mm"
     showgrid="false"
     inkscape:zoom="0.64052329"
     inkscape:cx="180.32131"
     inkscape:cy="165.48969"
     inkscape:window-width="948"
     inkscape:window-height="979"
     inkscape:window-x="964"
     inkscape:window-y="8"
     inkscape:window-maximized="0"
     inkscape:current-layer="layer1" />
  <defs
     id="defs1026" />
  <g
     inkscape:label="Layer 1"
     inkscape:groupmode="layer"
     id="layer1"
     transform="translate(64.658305,3.792587)">
    <g
       id="g966"
       style="display:inline"
       transform="translate(-91.233772,-60.417724)">
      <path
         d="M 26.575467,78.254817 V 68.222701 q 0,-1.069356 0.06615,-1.708767 0.07717,-0.650433 0.253558,-1.201647 0.584287,-2.061544 2.105641,-3.230121 1.521354,-1.168575 3.626996,-1.168575 1.212672,0 2.304079,0.451996 1.102428,0.451996 1.962324,1.311891 0.826823,0.826823 1.267796,1.907204 0.440971,1.080381 0.440971,2.271006 0,2.502517 -1.730814,4.244356 -1.719792,1.730814 -4.222309,1.730814 -0.264583,0 -0.84887,-0.03307 -0.05512,-0.01103 -0.07717,-0.01103 v -4.464843 q 0.264583,0.09922 0.463021,0.154342 0.209462,0.04409 0.396875,0.04409 0.716579,0 1.190625,-0.474043 0.474043,-0.474046 0.474043,-1.190625 0,-0.694531 -0.496091,-1.1796 -0.485071,-0.496094 -1.168577,-0.496094 -0.926042,0 -1.322917,0.650433 -0.396875,0.650434 -0.396875,2.282032 v 10.142357 z"
         id="path40264"
         style="font-size:85.3333px;line-height:1.25;font-family:'Blippo Blk BT';-inkscape-font-specification:'Blippo Blk BT';letter-spacing:0px;word-spacing:0px;white-space:pre;display:inline;fill:#ffffff;fill-opacity:1;stroke-width:0.264999;stroke-miterlimit:4;stroke-dasharray:none" />
      <path
         d="m 51.567556,72.720617 h -4.299477 v -4.608158 q 0,-1.631598 -0.396875,-2.282031 -0.396875,-0.650433 -1.311891,-0.650433 -0.694532,0 -1.190625,0.496094 -0.485069,0.485068 -0.485069,1.179599 0,0.716579 0.474044,1.190625 0.485071,0.474044 1.20165,0.474044 0.176387,0 0.385849,-0.0441 0.209463,-0.05512 0.474046,-0.154342 v 4.464844 l -0.07717,0.01103 q -0.595312,0.03307 -0.84887,0.03307 -2.491491,0 -4.222308,-1.730814 -1.719792,-1.730814 -1.719792,-4.244356 0,-1.190625 0.440973,-2.271006 0.440973,-1.080381 1.278819,-1.907204 0.84887,-0.859896 1.940277,-1.311891 1.091406,-0.451996 2.304079,-0.451996 1.785937,0 3.208072,0.892969 1.422133,0.881943 2.138715,2.447393 0.363802,0.826823 0.529166,1.708766 0.176388,0.870921 0.176388,2.171788 v 0.837848 z"
         id="path40266"
         style="font-size:85.3333px;line-height:1.25;font-family:'Blippo Blk BT';-inkscape-font-specification:'Blippo Blk BT';letter-spacing:0px;word-spacing:0px;white-space:pre;fill:#ffffff;fill-opacity:1;stroke-width:0.264999;stroke-miterlimit:4;stroke-dasharray:none" />
      <path
         d="m 57.741166,67.869924 v 4.850693 h -4.398698 v -5.600345 q 0,-1.896179 0.352779,-2.954512 0.352777,-1.069359 1.201648,-1.896182 0.639411,-0.639408 1.488281,-0.992185 0.859896,-0.363802 1.719792,-0.363802 0.418923,0 0.82682,0.03307 0.4079,0.03307 0.79375,0.09922 v 4.630206 q -0.07717,-0.01103 -0.23151,-0.03307 -0.363802,-0.05512 -0.463021,-0.05512 -0.716579,0 -1.00321,0.463021 -0.286631,0.463018 -0.286631,1.819008 z"
         id="path40268"
         style="font-size:85.3333px;line-height:1.25;font-family:'Blippo Blk BT';-inkscape-font-specification:'Blippo Blk BT';letter-spacing:0px;word-spacing:0px;white-space:pre;fill:#ffffff;fill-opacity:1;stroke-width:0.264999;stroke-miterlimit:4;stroke-dasharray:none" />
      <path
         d="m 72.789335,72.720617 h -4.299477 v -4.608158 q 0,-1.631598 -0.396875,-2.282031 -0.396875,-0.650433 -1.311891,-0.650433 -0.694531,0 -1.190625,0.496094 -0.485071,0.485068 -0.485071,1.179599 0,0.716579 0.474046,1.190625 0.485068,0.474044 1.20165,0.474044 0.176387,0 0.38585,-0.0441 0.20946,-0.05512 0.474043,-0.154342 v 4.464844 l -0.07717,0.01103 q -0.595313,0.03307 -0.848871,0.03307 -2.491494,0 -4.222308,-1.730814 -1.719792,-1.730814 -1.719792,-4.244356 0,-1.190625 0.440973,-2.271006 0.440971,-1.080381 1.278819,-1.907204 0.84887,-0.859896 1.940277,-1.311891 1.091406,-0.451996 2.304079,-0.451996 1.785937,0 3.20807,0.892969 1.422135,0.881943 2.138714,2.447393 0.363802,0.826823 0.529167,1.708766 0.17639,0.870921 0.17639,2.171788 v 0.837848 z"
         id="path40270"
         style="font-size:85.3333px;line-height:1.25;font-family:'Blippo Blk BT';-inkscape-font-specification:'Blippo Blk BT';letter-spacing:0px;word-spacing:0px;white-space:pre;fill:#ffffff;fill-opacity:1;stroke-width:0.264999;stroke-miterlimit:4;stroke-dasharray:none" />
      <path
         d="m 96.260075,71.618186 q -0.903994,0.716581 -1.874131,1.069358 -0.97014,0.352777 -2.072571,0.352777 -0.881944,0 -1.74184,-0.264583 -0.859893,-0.264584 -1.62057,-0.782725 -1.278819,-0.837848 -1.984375,-2.14974 -0.705556,-1.322916 -0.705556,-2.855293 0,-1.201647 0.46302,-2.304079 0.463021,-1.113454 1.322917,-1.962324 0.870921,-0.881944 1.97335,-1.344965 1.102431,-0.463021 2.293054,-0.463021 2.656858,0 4.365624,1.819008 1.708767,1.807985 1.708767,4.685329 v 0.242536 h -6.349997 q -0.297657,0 -0.440973,-0.253561 -0.143315,-0.253558 -0.143315,-0.804773 0,-0.551214 0.143315,-0.815797 0.143316,-0.264584 0.440973,-0.264584 h 1.918229 v -0.0441 q 0,-0.573265 -0.4079,-0.903994 -0.396875,-0.341752 -1.080381,-0.341752 -0.859896,0 -1.389063,0.694532 -0.529167,0.694531 -0.529167,1.85208 0,1.212676 0.485069,1.896182 0.485071,0.683506 1.344964,0.683506 0.407901,0 0.815801,-0.220485 0.407897,-0.231511 0.584287,-0.573265 z"
         id="path40276"
         style="font-size:85.3333px;line-height:1.25;font-family:'Blippo Blk BT';-inkscape-font-specification:'Blippo Blk BT';letter-spacing:0px;word-spacing:0px;white-space:pre;fill:#ffffff;fill-opacity:1;stroke-width:0.264999;stroke-miterlimit:4;stroke-dasharray:none" />
      <path
         d="m 78.852701,72.720617 h -4.288454 v -16.09548 h 4.288454 z"
         id="path40272"
         style="font-size:85.3333px;line-height:1.25;font-family:'Blippo Blk BT';-inkscape-font-specification:'Blippo Blk BT';letter-spacing:0px;word-spacing:0px;white-space:pre;display:inline;fill:#ffffff;fill-opacity:1;stroke-width:0.264999;stroke-miterlimit:4;stroke-dasharray:none" />
      <path
         d="m 84.927092,72.720617 h -4.288454 v -16.09548 h 4.288454 z"
         id="path40274"
         style="font-size:85.3333px;line-height:1.25;font-family:'Blippo Blk BT';-inkscape-font-specification:'Blippo Blk BT';letter-spacing:0px;word-spacing:0px;white-space:pre;fill:#ffffff;fill-opacity:1;stroke-width:0.264999;stroke-miterlimit:4;stroke-dasharray:none" />
      <path
         d="m 103.84479,72.720617 h -4.288451 v -16.09548 h 4.288451 z"
         id="path40278"
         style="font-size:85.3333px;line-height:1.25;font-family:'Blippo Blk BT';-inkscape-font-specification:'Blippo Blk BT';letter-spacing:0px;word-spacing:0px;white-space:pre;fill:#ffffff;fill-opacity:1;stroke-width:0.264999;stroke-miterlimit:4;stroke-dasharray:none" />
    </g>
  </g>
</svg>
