<?xml version="1.0" encoding="UTF-8" standalone="no"?>
<!-- Created with Inkscape (http://www.inkscape.org/) -->

<svg
   width="65.770981mm"
   height="16.415184mm"
   viewBox="0 0 65.770981 16.415184"
   version="1.1"
   id="svg1220"
   inkscape:version="1.1.2 (0a00cf5339, 2022-02-04)"
   sodipodi:docname="world.svg"
   xmlns:inkscape="http://www.inkscape.org/namespaces/inkscape"
   xmlns:sodipodi="http://sodipodi.sourceforge.net/DTD/sodipodi-0.dtd"
   xmlns="http://www.w3.org/2000/svg"
   xmlns:svg="http://www.w3.org/2000/svg">
  <sodipodi:namedview
     id="namedview1222"
     pagecolor="#ffffff"
     bordercolor="#666666"
     borderopacity="1.0"
     inkscape:pageshadow="2"
     inkscape:pageopacity="0.0"
     inkscape:pagecheckerboard="0"
     inkscape:document-units="mm"
     showgrid="false"
     inkscape:zoom="0.64052329"
     inkscape:cx="124.11727"
     inkscape:cy="31.22447"
     inkscape:window-width="948"
     inkscape:window-height="979"
     inkscape:window-x="964"
     inkscape:window-y="8"
     inkscape:window-maximized="0"
     inkscape:current-layer="layer1" />
  <defs
     id="defs1217" />
  <g
     inkscape:label="Layer 1"
     inkscape:groupmode="layer"
     id="layer1"
     transform="translate(-72.24177,-140.08587)">
    <g
       id="g956"
       style="display:inline"
       transform="translate(-39.4413,83.460732)">
      <path
         d="m 127.88879,61.233295 v 7.353208 q 0,0.970139 -0.15434,1.532379 -0.15434,0.56224 -0.49609,1.069356 -0.61736,0.881946 -1.56545,1.344964 -0.94809,0.463021 -2.16076,0.463021 -1.19063,0 -2.16077,-0.463021 -0.97013,-0.474043 -1.5434,-1.322914 -0.62838,0.859896 -1.5875,1.322914 -0.94809,0.463021 -2.11666,0.463021 -1.03629,0 -1.94028,-0.363802 -0.89297,-0.374825 -1.48828,-1.036283 -0.54019,-0.595313 -0.7717,-1.278819 -0.22049,-0.694531 -0.22049,-2.094618 v -6.989406 h 4.07899 v 5.688539 q 0,0.94809 0.23151,1.300867 0.23151,0.341754 0.78273,0.341754 0.54019,0 0.76067,-0.352777 0.23151,-0.352777 0.23151,-1.289844 v -5.688539 h 4.04592 v 5.688539 q 0,0.94809 0.23151,1.300867 0.23151,0.341754 0.78273,0.341754 0.54019,0 0.76068,-0.352777 0.23151,-0.352777 0.23151,-1.289844 v -5.688539 z"
         id="path40280"
         style="font-size:85.3333px;line-height:1.25;font-family:'Blippo Blk BT';-inkscape-font-specification:'Blippo Blk BT';letter-spacing:0px;word-spacing:0px;white-space:pre;fill:#ffffff;fill-opacity:1;stroke-width:0.264999;stroke-miterlimit:4;stroke-dasharray:none" />
      <path
         d="m 133.53324,66.98798 q 0,0.639411 0.45199,1.102431 0.46302,0.451996 1.11346,0.451996 0.63941,0 1.10243,-0.451996 0.47404,-0.46302 0.47404,-1.102431 0,-0.650433 -0.47404,-1.113454 -0.46302,-0.474046 -1.10243,-0.474046 -0.65044,0 -1.11346,0.463021 -0.45199,0.463021 -0.45199,1.124479 z m -4.4869,0 q 0,-0.892969 0.25356,-1.741839 0.26459,-0.848871 0.76068,-1.598523 0.8599,-1.300869 2.18281,-2.017448 1.32292,-0.716579 2.8553,-0.716579 1.19062,0 2.30407,0.474044 1.11346,0.463021 1.98438,1.333942 0.85989,0.859895 1.32292,1.962324 0.46302,1.102432 0.46302,2.304079 0,1.212673 -0.46302,2.304079 -0.452,1.091406 -1.32292,1.962325 -0.8599,0.859895 -1.97335,1.322916 -1.11345,0.463021 -2.3151,0.463021 -1.21268,0 -2.30408,-0.451996 -1.09141,-0.46302 -1.96233,-1.333941 -0.87092,-0.870919 -1.33394,-1.962325 -0.452,-1.091406 -0.452,-2.304079 z"
         id="path40282"
         style="font-size:85.3333px;line-height:1.25;font-family:'Blippo Blk BT';-inkscape-font-specification:'Blippo Blk BT';letter-spacing:0px;word-spacing:0px;white-space:pre;fill:#ffffff;fill-opacity:1;stroke-width:0.264999;stroke-miterlimit:4;stroke-dasharray:none" />
      <path
         d="m 146.86161,67.869924 v 4.850693 h -4.3987 v -5.600345 q 0,-1.896179 0.35278,-2.954512 0.35278,-1.069359 1.20165,-1.896182 0.63941,-0.639408 1.48828,-0.992185 0.8599,-0.363802 1.71979,-0.363802 0.41893,0 0.82683,0.03307 0.4079,0.03307 0.79375,0.09922 v 4.630206 q -0.0772,-0.01103 -0.23152,-0.03307 -0.3638,-0.05512 -0.46302,-0.05512 -0.71658,0 -1.00321,0.463021 -0.28663,0.463018 -0.28663,1.819008 z"
         id="path40284"
         style="font-size:85.3333px;line-height:1.25;font-family:'Blippo Blk BT';-inkscape-font-specification:'Blippo Blk BT';letter-spacing:0px;word-spacing:0px;white-space:pre;fill:#ffffff;fill-opacity:1;stroke-width:0.264999;stroke-miterlimit:4;stroke-dasharray:none" />
      <path
         d="m 167.98417,56.625137 v 9.183243 q 0,1.014235 -0.0772,1.609548 -0.0661,0.595312 -0.22048,1.124479 -0.60634,2.105642 -2.13872,3.307289 -1.52135,1.190625 -3.61597,1.190625 -1.20165,0 -2.29305,-0.463021 -1.09141,-0.463021 -1.9513,-1.344964 -0.83785,-0.848871 -1.27882,-1.940277 -0.44098,-1.102429 -0.44098,-2.304079 0,-2.568662 1.7198,-4.332549 1.71979,-1.76389 4.2223,-1.76389 0.25356,0 0.8599,0.0441 0.0331,0 0.0661,0 v 4.56406 q -0.3197,-0.132292 -0.51814,-0.176387 -0.18741,-0.05512 -0.3197,-0.05512 -0.73863,0 -1.2237,0.496094 -0.47405,0.485069 -0.47405,1.223698 0,0.683506 0.4961,1.190625 0.49609,0.496094 1.1796,0.496094 0.91502,0 1.31189,-0.661459 0.39688,-0.661458 0.39688,-2.337151 v -9.050952 z"
         id="path40288"
         style="font-size:85.3333px;line-height:1.25;font-family:'Blippo Blk BT';-inkscape-font-specification:'Blippo Blk BT';letter-spacing:0px;word-spacing:0px;white-space:pre;fill:#ffffff;fill-opacity:1;stroke-width:0.264999;stroke-miterlimit:4;stroke-dasharray:none" />
      <path
         d="m 169.07558,72.676519 v -4.586108 q 1.25677,0 1.71979,-0.4079 0.46302,-0.418922 0.54019,-1.885156 0.14332,-2.304079 1.23472,-3.428558 1.09141,-1.135502 3.175,-1.135502 h 1.70877 v 4.597133 q -0.0441,0 -0.13229,-0.01103 -0.0772,-0.01103 -0.11025,-0.01103 -0.38585,0 -0.67248,0.143317 -0.27561,0.132291 -0.44097,0.396872 -0.25356,0.4079 -0.31971,1.322917 -0.0551,0.903994 -0.17639,1.355989 -0.45199,1.686719 -1.92925,2.689929 -1.46623,1.003213 -3.52777,1.003213 -0.29766,0 -0.99219,-0.0441 -0.0441,0 -0.0772,0 z"
         id="path40290"
         style="font-size:85.3333px;line-height:1.25;font-family:'Blippo Blk BT';-inkscape-font-specification:'Blippo Blk BT';letter-spacing:0px;word-spacing:0px;white-space:pre;fill:#ffffff;fill-opacity:1;stroke-width:0.264999;stroke-miterlimit:4;stroke-dasharray:none" />
      <path
         d="m 154.58965,72.720617 h -4.28845 v -16.09548 h 4.28845 z"
         id="path40286"
         style="font-size:85.3333px;line-height:1.25;font-family:'Blippo Blk BT';-inkscape-font-specification:'Blippo Blk BT';letter-spacing:0px;word-spacing:0px;white-space:pre;fill:#ffffff;fill-opacity:1;stroke-width:0.264999;stroke-miterlimit:4;stroke-dasharray:none" />
    </g>
  </g>
</svg>
